<?xml version="1.0" encoding="UTF-8" standalone="no"?>
<svg width="525px" height="229px" viewBox="0 0 525 229" version="1.1" xmlns="http://www.w3.org/2000/svg" xmlns:xlink="http://www.w3.org/1999/xlink">
    <!-- Generator: Sketch 41.2 (35397) - http://www.bohemiancoding.com/sketch -->
    <title>XMLID_139_</title>
    <desc>Created with Sketch.</desc>
    <defs></defs>
    <g id="Page-1" stroke="none" stroke-width="1" fill="none" fill-rule="evenodd">
        <g id="XMLID_139_">
            <g id="XMLID_32_" transform="translate(231.554877, 85.970100)" fill="#434343">
                <path d="M18.6167044,45.8760797 C8.69292394,45.8760797 2.07707032,41.0830565 0.307714122,31.2687708 L7.0774248,30.1275748 C8.38520982,36.7465116 11.9239222,39.2571429 18.6167044,39.2571429 C23.0016306,39.2571429 28.3096992,37.20299 28.3096992,32.1056478 C28.3096992,21.3023256 2.15399885,28.3016611 2.15399885,12.3249169 C2.15399885,3.95614618 9.8468519,0.380398671 17.3089193,0.380398671 C26.0018433,0.380398671 30.6175551,3.42358804 34.3101246,11.1076412 L28.1558421,13.9225914 C25.4633436,8.59700997 23.4632018,6.99933555 17.3858479,6.99933555 C13.8471355,6.99933555 9.07756659,7.98837209 9.07756659,12.3249169 C9.07756659,21.0740864 35.2332669,15.2159468 35.2332669,32.1056478 C35.1563384,41.0830565 26.9249857,45.8760797 18.6167044,45.8760797 Z" id="XMLID_63_"></path>
                <polygon id="XMLID_61_" points="69.3126059 45.1152824 50.7728301 22.8239203 50.7728301 45.1152824 43.9261909 45.1152824 43.9261909 0.608637874 50.7728301 0.608637874 50.7728301 22.3674419 66.6970359 0.608637874 74.6206745 0.608637874 58.4656831 22.5956811 78.0824584 45.1152824"></polygon>
                <polygon id="XMLID_59_" points="84.0828838 45.1152824 84.0828838 0.608637874 114.008082 0.608637874 114.008082 7.15149502 90.8525944 7.15149502 90.8525944 19.172093 111.084798 19.172093 111.084798 25.2584718 90.8525944 25.2584718 90.8525944 38.5724252 114.008082 38.5724252 114.008082 45.1152824"></polygon>
                <path d="M158.011202,32.5621262 C156.395702,43.213289 148.933635,45.1152824 139.317569,45.1152824 L125.08579,45.1152824 L125.08579,0.608637874 L139.317569,0.608637874 C148.933635,0.608637874 156.395702,2.4345515 158.011202,13.161794 C158.472773,16.2810631 158.549701,19.6285714 158.549701,22.8239203 C158.549701,26.0192691 158.472773,29.4428571 158.011202,32.5621262 Z M139.317569,7.15149502 L131.93243,7.15149502 L131.93243,38.4963455 L139.317569,38.4963455 C152.164633,38.4963455 151.703062,34.1598007 151.703062,22.9 C151.703062,11.4880399 152.164633,7.15149502 139.317569,7.15149502 Z" id="XMLID_56_"></path>
                <path d="M183.705331,45.8760797 C173.78155,45.8760797 167.165697,41.0830565 165.39634,31.2687708 L172.166051,30.1275748 C173.473836,36.7465116 177.012549,39.2571429 183.705331,39.2571429 C188.090257,39.2571429 193.398326,37.20299 193.398326,32.1056478 C193.398326,21.3023256 167.242625,28.3016611 167.242625,12.3249169 C167.242625,3.95614618 174.935478,0.380398671 182.397546,0.380398671 C191.013541,0.380398671 195.706181,3.42358804 199.321822,11.1076412 L193.16754,13.9225914 C190.475041,8.59700997 188.4749,6.99933555 182.397546,6.99933555 C178.858833,6.99933555 174.089264,7.98837209 174.089264,12.3249169 C174.089264,21.0740864 200.244965,15.2159468 200.244965,32.1056478 C200.244965,41.0830565 192.013612,45.8760797 183.705331,45.8760797 Z" id="XMLID_54_"></path>
                <polygon id="XMLID_52_" points="240.401658 45.1152824 240.401658 20.0089701 230.86252 45.1152824 225.09288 45.1152824 215.630671 20.0089701 215.630671 45.1152824 208.707103 45.1152824 208.707103 0.608637874 215.015243 0.608637874 227.939236 34.6162791 240.940157 0.608637874 247.325225 0.608637874 247.325225 45.1152824"></polygon>
                <path d="M273.942497,45.7239203 C260.326147,45.7239203 255.402721,34.6923588 255.402721,22.9 C255.402721,11.1076412 260.326147,0.0760797342 273.942497,0.0760797342 C287.558847,0.0760797342 292.482273,11.1076412 292.482273,22.9 C292.482273,34.6923588 287.558847,45.7239203 273.942497,45.7239203 Z M273.942497,6.77109635 C264.249502,6.77109635 262.24936,15.2159468 262.24936,22.9 C262.24936,30.5840532 264.326431,39.0289037 273.942497,39.0289037 C283.635492,39.0289037 285.635633,30.6601329 285.635633,22.9 C285.635633,15.1398671 283.558563,6.77109635 273.942497,6.77109635 Z" id="XMLID_49_"></path>
                <g id="XMLID_33_" transform="translate(4.615712, 65.428571)">
                    <polygon id="XMLID_47_" points="22.3092738 39.5614618 6.23121096 20.2372093 6.23121096 39.5614618 0.307714122 39.5614618 0.307714122 0.912956811 6.23121096 0.912956811 6.23121096 19.7807309 20.0783464 0.912956811 26.9249857 0.912956811 12.8470646 20.0089701 29.8482698 39.5614618"></polygon>
                    <path d="M47.6956889,40.0179402 C35.8486952,40.0179402 31.617626,30.4318937 31.617626,20.2372093 C31.617626,10.0425249 35.8486952,0.456478405 47.6956889,0.456478405 C59.5426826,0.456478405 63.8506803,10.0425249 63.8506803,20.2372093 C63.8506803,30.4318937 59.6196111,40.0179402 47.6956889,40.0179402 Z M47.6956889,6.16245847 C39.310479,6.16245847 37.5411228,13.466113 37.5411228,20.2372093 C37.5411228,27.0083056 39.310479,34.3119601 47.6956889,34.3119601 C56.0808987,34.3119601 57.8502549,27.0083056 57.8502549,20.2372093 C57.9271834,13.466113 56.1578272,6.16245847 47.6956889,6.16245847 Z" id="XMLID_44_"></path>
                    <polygon id="XMLID_42_" points="98.622376 39.5614618 98.622376 17.7265781 90.3910233 39.5614618 85.3906688 39.5614618 77.159316 17.7265781 77.159316 39.5614618 71.1588906 39.5614618 71.1588906 0.912956811 76.6208163 0.912956811 87.8523818 30.4318937 99.0839472 0.912956811 104.622801 0.912956811 104.622801 39.5614618"></polygon>
                    <polygon id="XMLID_40_" points="141.702353 39.5614618 141.702353 17.7265781 133.394072 39.5614618 128.470646 39.5614618 120.239293 17.7265781 120.239293 39.5614618 114.238868 39.5614618 114.238868 0.912956811 119.700793 0.912956811 130.932359 30.4318937 142.163924 0.912956811 147.702778 0.912956811 147.702778 39.5614618"></polygon>
                    <path d="M170.396695,40.0179402 C159.549772,40.0179402 155.703346,32.8664452 155.703346,23.1282392 L155.703346,0.912956811 L161.626842,0.912956811 L161.626842,23.1282392 C161.626842,29.3667774 162.934627,34.2358804 170.396695,34.2358804 C177.858762,34.2358804 179.166547,29.3667774 179.166547,23.0521595 L179.166547,0.836877076 L185.090044,0.836877076 L185.090044,23.0521595 C185.090044,32.8664452 181.243618,40.0179402 170.396695,40.0179402 Z" id="XMLID_38_"></path>
                    <polygon id="XMLID_36_" points="216.015313 39.5614618 199.398751 12.8574751 199.398751 39.5614618 193.475254 39.5614618 193.475254 0.912956811 198.93718 0.912956811 215.553742 27.6169435 215.553742 0.912956811 221.477239 0.912956811 221.477239 39.5614618"></polygon>
                    <polygon id="XMLID_34_" points="230.400949 39.5614618 230.400949 0.912956811 256.325863 0.912956811 256.325863 6.61893688 236.247517 6.61893688 236.247517 17.0418605 253.86415 17.0418605 253.86415 22.3674419 236.324445 22.3674419 236.324445 33.8554817 256.402792 33.8554817 256.402792 39.5614618"></polygon>
                </g>
            </g>
            <g id="XMLID_2_">
                <path d="M0.0769285304,0.456478405 L182.70526,0.456478405 L182.70526,138.389037 L182.70526,138.389037 C182.70526,188.221262 141.85621,228.695681 91.3910942,228.695681 C41.0029067,228.695681 0.0769285304,188.221262 0.0769285304,138.389037 C0.0769285304,138.389037 0.0769285304,0.456478405 0.0769285304,0.456478405 Z" id="XMLID_31_" fill="#434343"></path>
                <g id="XMLID_3_" transform="translate(8.462138, 12.933555)" fill="#FFFFFF">
                    <g id="XMLID_22_">
                        <path d="M77.3901016,10.5750831 C77.3901016,10.5750831 77.2362446,10.5750831 77.3901016,10.5750831 L77.3901016,10.5750831 Z" id="XMLID_30_"></path>
                        <path d="M82.3904561,38.9528239 C79.1594578,38.8006645 77.4670301,38.1920266 77.4670301,38.1920266 C85.3906688,37.8116279 91.3910942,34.5401993 93.6989501,33.2468439 C97.314591,31.192691 101.391803,28.3016611 104.16123,23.8890365 C110.777084,13.3139535 108.084585,0.380398671 108.084585,0.380398671 C104.69973,9.58604651 99.3147328,14.9877076 94.5451639,18.3352159 C82.7750987,26.7039867 70.9281051,24.4215947 70.9281051,24.4215947 C86.1599541,19.7807309 91.5449512,14.8355482 94.6220924,9.43388704 C97.4684481,4.33654485 97.3915195,0.304318937 97.3915195,0.304318937 C96.3914486,1.90199336 94.5451639,4.94518272 90.3140947,7.45581395 C86.0830256,9.96644518 81.0057425,10.3468439 80.3903143,10.4229236 C79.7748861,10.4990033 77.6208872,10.5750831 77.3131731,10.5750831 L77.3131731,10.5750831 L74.3898889,10.5750831 C70.4665339,10.5750831 66.7739644,10.4990033 66.0046791,10.4990033 C65.2353938,10.4990033 62.5428952,10.4229236 62.5428952,10.4229236 C60.9273961,10.4229236 59.0811114,10.7272425 59.0811114,10.7272425 C59.0811114,10.7272425 56.6193984,11.0315615 54.0807569,12.020598 C51.5421154,13.0096346 50.0804733,13.9986711 49.0034739,14.7594684 C47.8495459,15.5202658 45.7724756,17.3461794 44.9262618,18.3352159 C44.0800479,19.2481728 43.6184768,19.5524917 43.2338341,19.9328904 C42.7722629,20.313289 42.1568347,20.4654485 42.1568347,20.4654485 C43.0030485,19.172093 44.233905,16.7375415 44.233905,16.7375415 C44.233905,16.7375415 45.0801188,15.0637874 45.3109044,14.3790698 C45.6186185,13.6943522 46.1571183,12.1727575 46.1571183,12.1727575 C47.0802606,9.20564784 46.3879038,7.76013289 46.3879038,7.76013289 C46.3879038,7.76013289 43.7723338,9.73820598 40.9259782,11.7923588 C39.0027649,13.161794 37.5411228,13.9986711 36.6179805,14.9877076 C34.3870531,17.1940199 33.6946963,20.0089701 33.6946963,20.0089701 C32.0022687,19.2481728 28.5404848,18.1069767 24.1555586,18.7156146 C19.6937038,19.3242525 15.077992,24.4215947 15.077992,24.4215947 C13.4624928,26.0192691 9.69299483,30.6601329 7.61592451,32.8664452 C4.15414064,36.6704319 0.769285304,38.344186 0.769285304,38.344186 C1.23085649,38.7245847 7.53899598,40.7787375 15.231849,35.5292359 C17.7704905,33.779402 19.5398467,32.2578073 22.3092738,29.1385382 C24.7709868,26.3996678 26.6942001,25.3345515 27.6173424,24.8019934 C29.3866986,23.7368771 31.0791263,23.2043189 31.0791263,23.2043189 C30.0790554,24.4976744 26.1557003,29.0624585 26.0787718,29.2146179 C25.9249148,29.4428571 22.0784882,33.9315615 22.0784882,33.9315615 C22.0784882,33.9315615 21.7707741,34.3880399 19.2321326,37.0508306 C18.6167044,37.7355482 17.693562,38.648505 16.7704196,39.4853821 C11.8469937,44.1262458 6.92356774,47.8541528 6.92356774,47.8541528 C5.38499713,49.0714286 4.76956889,49.3757475 4.38492623,49.6800664 C4.00028358,49.9843854 3.30792681,50.5169435 2.7694271,51.2016611 C2.15399885,51.8863787 1.69242767,52.6471761 1.23085649,53.6362126 C0.769285304,54.6252492 0.692356774,55.6903654 0.615428243,56.2229236 C0.538499713,56.7554817 0.538499713,58.2770764 0.769285304,59.266113 C1.0000709,60.2551495 1.15392796,60.4833887 1.30778502,60.9398671 C1.53857061,61.3963455 2.15399885,62.2332226 2.15399885,62.2332226 C2.69249857,62.9940199 3.46178387,63.5265781 3.46178387,63.5265781 C4.92342595,64.6677741 6.0773539,63.830897 6.38506803,63.6787375 C6.84663921,63.3744186 7.30821039,63.0700997 7.8467101,62.6136213 C8.46213835,62.0810631 9.46220924,61.1681063 9.46220924,61.1681063 C9.46220924,61.1681063 10.4622801,60.1790698 11.0007799,59.7225914 C11.462351,59.266113 12.2316363,58.8096346 12.3085649,58.7335548 C12.3854934,58.6574751 13.5394214,57.8966777 15.077992,58.2009967 C16.6165626,58.5053156 18.1551332,59.4943522 18.1551332,59.4943522 C18.2320617,59.5704319 18.6167044,59.7986711 18.84749,60.1790698 C19.0782755,60.5594684 19.1552041,60.9398671 18.84749,61.4724252 C18.4628473,62.0049834 17.693562,62.6136213 17.0781338,63.1461794 C16.9242767,63.2983389 15.6934202,64.2873754 15.1549205,64.6677741 C14.6164208,65.0481728 14.0009925,65.5046512 13.6163499,65.7328904 C13.2317072,65.9611296 13.3855643,65.8850498 12.8470646,66.1893688 C12.2316363,66.4936877 11.9239222,66.7980066 11.9239222,66.7980066 C11.9239222,66.7980066 10.6161372,67.8631229 12.1547078,68.7 C13.6932784,69.5368771 15.3857061,69.6129568 15.3857061,69.6129568 L16.0011343,69.6129568 C20.6168462,69.6129568 23.0016306,66.3415282 23.0016306,66.3415282 C23.7709159,65.2003322 24.07863,64.5156146 25.232558,62.8418605 C26.6942001,60.7877076 28.3096992,60.9398671 30.6944836,60.2551495 C46.0801897,55.9186047 50.2343304,47.0933555 50.2343304,47.0933555 C46.6186894,56.0707641 40.2336214,59.4943522 40.2336214,59.4943522 C40.2336214,59.4943522 41.1567638,62.0049834 42.1568347,64.2112957 C44.1569765,68.7 45.8494041,71.0584718 45.8494041,71.0584718 C46.0032612,68.1674419 46.7725465,62.689701 50.7728301,58.5053156 C53.1576145,55.9946844 55.542399,55.1578073 58.6195402,54.9295681 C62.3121096,54.6252492 65.0046082,55.538206 66.4662503,55.7664452 C76.3131022,57.5923588 85.5445258,55.9946844 85.5445258,55.9946844 C80.3903143,55.233887 74.3898889,49.9083056 74.3898889,49.9083056 C74.3898889,49.9083056 80.3903143,51.3538206 86.8523109,50.1365449 C94.0066642,48.8431894 99.5455184,43.0611296 99.5455184,43.0611296 C106.930657,35.8335548 108.392299,29.1385382 108.392299,29.1385382 C96.006806,38.5724252 86.2368826,39.1049834 82.3904561,38.9528239 Z M6.61585362,56.9076412 C6.38506803,57.7445183 5.3080686,59.6465116 5.23114007,59.7986711 C5.07728301,60.10299 4.61571183,60.8637874 3.84642652,59.3421927 C3.46178387,58.6574751 3.15406975,56.7554817 3.84642652,55.3860465 C4.15414064,54.8534884 4.5387833,54.6252492 4.76956889,54.6252492 C4.92342595,54.5491694 5.61578272,54.4730897 6.0773539,54.5491694 C6.53892509,54.7013289 6.76971068,55.0056478 6.84663921,55.3860465 C6.92356774,55.8425249 6.84663921,56.2990033 6.61585362,56.9076412 Z M32.6176969,38.344186 C32.6176969,38.344186 31.4637689,36.2900332 29.002056,36.8986711 C29.002056,36.8986711 30.6944836,38.2681063 31.0021978,40.0179402 C31.0021978,40.0179402 29.2328416,40.930897 27.9250565,40.4744186 C26.7711286,40.0940199 27.0788427,38.4202658 27.6173424,37.0508306 C27.7711995,36.5943522 27.9250565,36.4421927 28.0789136,36.2139535 C28.2327707,35.9857143 28.4635563,35.8335548 28.6943419,35.6053156 C28.9251274,35.3770764 29.2328416,35.1488372 30.2329125,34.7684385 C30.2329125,34.7684385 32.1561257,34.0076412 32.8484825,35.7574751 C33.2331251,36.7465116 32.6176969,38.344186 32.6176969,38.344186 Z M46.0032612,22.7478405 C46.0032612,22.7478405 48.3111171,22.5956811 50.8497586,22.8239203 C58.0041119,23.5847176 64.1583944,21.5305648 64.1583944,21.5305648 C58.6195402,24.8780731 52.5421863,25.1063123 52.5421863,25.1063123 C54.4653995,27.0843854 54.9269707,29.2906977 54.9269707,29.2906977 C49.6958307,24.345515 46.0032612,22.7478405 46.0032612,22.7478405 Z M59.7734681,34.4641196 C58.5426117,33.0186047 57.4656122,31.9534884 57.4656122,31.9534884 C60.3119679,32.0295681 62.2351811,32.638206 65.0046082,32.7142857 C68.3894636,32.7903654 73.6975322,32.0295681 73.6975322,32.0295681 C68.8510347,34.3119601 61.8505385,35.0727575 61.8505385,35.0727575 C63.4660376,37.3551495 63.9276088,39.3332226 63.9276088,39.3332226 C63.1583235,38.4963455 61.2351102,36.2139535 59.7734681,34.4641196 Z M70.4665339,45.2674419 C71.0819621,46.2564784 71.5435333,47.8541528 71.5435333,47.8541528 C68.5433206,45.1152824 65.4661794,41.3112957 65.4661794,41.3112957 C66.4662503,41.3112957 67.7740353,41.7677741 69.0048918,42.4524917 C69.7741771,42.8328904 71.0819621,43.517608 73.389818,43.8980066 C77.4670301,44.5827243 81.3134567,44.2784053 81.3134567,44.2784053 C78.6978866,45.5717608 70.4665339,45.2674419 70.4665339,45.2674419 Z" id="XMLID_23_"></path>
                    </g>
                    <g id="XMLID_13_" transform="translate(27.694271, 59.342193)">
                        <path d="M77.005459,10.4990033 C77.005459,10.4990033 76.9285304,10.4990033 77.005459,10.4990033 L77.005459,10.4990033 Z" id="XMLID_21_"></path>
                        <path d="M82.0058134,38.8767442 C78.7748152,38.7245847 77.0823875,38.1920266 77.0823875,38.1920266 C85.0060261,37.8116279 91.0064515,34.5401993 93.3143074,33.2468439 C96.9299483,31.192691 101.00716,28.3016611 103.776588,23.8890365 C110.392441,13.3139535 107.699943,0.380398671 107.699943,0.380398671 C104.315087,9.58604651 98.9300901,14.9116279 94.1605212,18.3352159 C82.3904561,26.7039867 70.5434624,24.4215947 70.5434624,24.4215947 C85.7753114,19.7807309 91.1603086,14.8355482 94.2374498,9.43388704 C97.0838054,4.33654485 96.9299483,0.304318937 96.9299483,0.304318937 C95.9298774,1.90199336 94.0835927,4.94518272 89.8525235,7.45581395 C85.6214544,9.96644518 80.5441714,10.3468439 79.9287431,10.4229236 C79.3133149,10.4990033 77.159316,10.5750831 76.8516019,10.5750831 L76.8516019,10.5750831 L73.9283177,10.5750831 C70.0049627,10.5750831 66.3123932,10.4990033 65.6200365,10.4990033 C64.8507512,10.4990033 62.1582526,10.4229236 62.1582526,10.4229236 C60.5427534,10.4229236 58.6964687,10.7272425 58.6964687,10.7272425 C58.6964687,10.7272425 56.2347557,11.0315615 53.6961142,12.020598 C51.1574727,13.0096346 49.6958307,13.9986711 48.6188312,14.7594684 C47.5418318,15.5202658 45.387833,17.3461794 44.5416191,18.3352159 C43.6954053,19.2481728 43.2338341,19.5524917 42.8491914,19.9328904 C42.3876203,20.313289 41.772192,20.4654485 41.772192,20.4654485 C42.6184059,19.172093 43.7723338,16.7375415 43.7723338,16.7375415 C43.7723338,16.7375415 44.6185476,15.0637874 44.8493332,14.3790698 C45.1570474,13.6943522 45.6955471,12.2488372 45.6955471,12.2488372 C46.6186894,9.28172757 45.9263327,7.83621262 45.9263327,7.83621262 C45.9263327,7.83621262 43.3107626,9.81428571 40.464407,11.8684385 C38.5411937,13.2378738 37.1564802,14.0747508 36.1564093,15.0637874 C33.9254819,17.2700997 33.2331251,20.0850498 33.2331251,20.0850498 C31.5406975,19.3242525 28.1558421,18.1830565 23.6939874,18.7916944 C19.3090611,19.4003322 14.6164208,24.4976744 14.6164208,24.4976744 C13.0009216,26.0953488 9.23142365,30.7362126 7.15435333,32.9425249 C3.69256946,36.7465116 0.307714122,38.4202658 0.307714122,38.4202658 C0.769285304,38.8006645 7.0774248,40.8548173 14.7702778,35.6053156 C17.3089193,33.8554817 19.0782755,32.333887 21.8477026,29.2146179 C24.3094156,26.4757475 26.2326289,25.4106312 27.1557712,24.8780731 C28.9251274,23.8129568 30.6175551,23.2803987 30.6175551,23.2803987 C29.6174842,24.5737542 25.6941292,29.1385382 25.6172006,29.2906977 C25.4633436,29.5189369 21.6169171,34.0076412 21.6169171,34.0076412 C21.6169171,34.0076412 21.3092029,34.4641196 18.7705614,37.1269103 C18.1551332,37.8116279 17.2319908,38.7245847 16.3088485,39.5614618 C11.462351,44.2784053 6.53892509,48.0063123 6.53892509,48.0063123 C5.00035448,49.223588 4.46185476,49.527907 4.00028358,49.8322259 C3.61564093,50.1365449 2.92328416,50.669103 2.38478444,51.3538206 C1.84628473,52.0385382 1.30778502,52.7993355 0.846213835,53.7883721 C0.384642652,54.7774086 0.307714122,55.8425249 0.230785591,56.3750831 C0.153857061,56.9076412 0.153857061,58.4292359 0.384642652,59.4182724 C0.615428243,60.407309 0.692356774,60.6355482 0.923142365,61.0920266 C1.15392796,61.548505 1.7693562,62.3853821 1.7693562,62.3853821 C2.30785591,63.1461794 3.07714122,63.6787375 3.07714122,63.6787375 C4.5387833,64.8199336 5.69271125,63.9830565 6.00042537,63.830897 C6.46199656,63.5265781 6.92356774,63.2222591 7.46206745,62.7657807 C8.0774957,62.2332226 9.07756659,61.3202658 9.07756659,61.3202658 C9.07756659,61.3202658 10.0776375,60.3312292 10.6161372,59.8747508 C11.0777084,59.4182724 11.8469937,58.961794 11.9239222,58.8857143 C12.0008507,58.8096346 13.1547787,58.0488372 14.6933493,58.3531561 C16.2319199,58.5813953 17.7704905,59.6465116 17.7704905,59.6465116 C17.8474191,59.7225914 18.2320617,59.9508306 18.4628473,60.3312292 C18.6936329,60.7116279 18.7705614,61.0920266 18.3859188,61.6245847 C18.0012761,62.1571429 17.2319908,62.7657807 16.6165626,63.2983389 C16.4627055,63.4504983 15.231849,64.4395349 14.6933493,64.8199336 C14.1548496,65.2003322 13.5394214,65.6568106 13.1547787,65.8850498 C12.7701361,66.113289 12.9239931,66.0372093 12.3854934,66.3415282 C11.7700652,66.6458472 11.462351,66.9501661 11.462351,66.9501661 C11.462351,66.9501661 10.2314945,68.0152824 11.6931366,68.8521595 C13.2317072,69.6890365 14.9241349,69.7651163 14.9241349,69.7651163 L15.5395631,69.841196 C20.155275,69.841196 22.5400594,66.5697674 22.5400594,66.5697674 C23.3093447,65.4285714 23.6170588,64.7438538 24.7709868,63.0700997 C26.2326289,61.0159468 27.848128,61.1681063 30.2329125,60.4833887 C45.6186185,56.1468439 49.7727592,47.3215947 49.7727592,47.3215947 C46.1571183,56.2990033 39.7720502,59.7225914 39.7720502,59.7225914 C39.7720502,59.7225914 40.6951926,62.2332226 41.6952635,64.4395349 C43.6184768,68.9282392 45.387833,71.286711 45.387833,71.286711 C45.54169,68.3956811 46.3109753,62.9179402 50.3112589,58.7335548 C52.6960433,56.2229236 55.0808278,55.3860465 58.157969,55.1578073 C61.8505385,54.8534884 64.543037,55.7664452 66.0046791,55.9946844 C75.851531,57.8966777 85.0829547,56.2229236 85.0829547,56.2229236 C79.9287431,55.4621262 73.8513892,50.1365449 73.8513892,50.1365449 C73.8513892,50.1365449 79.8518146,51.5820598 86.3138111,50.3647841 C93.4681645,49.0714286 99.0070187,43.2893688 99.0070187,43.2893688 C106.392158,36.061794 107.8538,29.3667774 107.8538,29.3667774 C95.6221633,38.4963455 85.85224,39.0289037 82.0058134,38.8767442 Z M6.23121096,56.8315615 C6.00042537,57.6684385 4.92342595,59.5704319 4.84649742,59.7225914 C4.69264036,60.0269103 4.23106917,60.7877076 3.46178387,59.266113 C3.07714122,58.5813953 2.7694271,56.679402 3.5387124,55.3099668 C3.84642652,54.7774086 4.3079977,54.6252492 4.46185476,54.5491694 C4.61571183,54.4730897 5.3080686,54.39701 5.76963978,54.4730897 C6.23121096,54.6252492 6.46199656,54.9295681 6.53892509,55.3099668 C6.53892509,55.7664452 6.46199656,56.2229236 6.23121096,56.8315615 Z M32.2330543,38.2681063 C32.2330543,38.2681063 31.0791263,36.2139535 28.6174133,36.7465116 C28.6174133,36.7465116 30.309841,38.1159468 30.6175551,39.8657807 C30.6175551,39.8657807 28.8481989,40.7026578 27.5404139,40.3222591 C26.3864859,39.9418605 26.6942001,38.2681063 27.2326998,36.8986711 C27.3865568,36.4421927 27.5404139,36.2900332 27.694271,36.061794 C27.848128,35.8335548 28.0789136,35.6813953 28.3096992,35.4531561 C28.5404848,35.2249169 28.8481989,34.9966777 29.8482698,34.6162791 C29.8482698,34.6162791 31.7714831,33.8554817 32.4638398,35.6053156 C32.925411,36.6704319 32.2330543,38.2681063 32.2330543,38.2681063 Z M45.6186185,22.6717608 C45.6186185,22.6717608 47.9264745,22.5196013 50.465116,22.7478405 C57.6194693,23.5086379 63.7737517,21.454485 63.7737517,21.454485 C58.2348975,24.8019934 52.1575436,25.0302326 52.1575436,25.0302326 C54.0807569,27.0083056 54.5423281,29.2146179 54.5423281,29.2146179 C49.311188,24.2694352 45.6186185,22.6717608 45.6186185,22.6717608 Z M59.3888255,34.4641196 C58.157969,33.0186047 57.0809696,31.9534884 57.0809696,31.9534884 C59.9273252,32.0295681 61.8505385,32.638206 64.543037,32.7142857 C67.9278924,32.7903654 73.235961,32.0295681 73.235961,32.0295681 C68.3894636,34.3119601 61.3889673,35.0727575 61.3889673,35.0727575 C63.081395,37.3551495 63.3891091,39.3332226 63.3891091,39.3332226 C62.7736808,38.4202658 60.8504676,36.1378738 59.3888255,34.4641196 Z M70.0818912,45.1913621 C70.6973195,46.1043189 71.1588906,47.7780731 71.1588906,47.7780731 C68.158678,45.0392027 65.0815367,41.2352159 65.0815367,41.2352159 C66.0816076,41.2352159 67.3893927,41.6916944 68.6202491,42.376412 C69.3895344,42.7568106 70.6973195,43.4415282 73.0051754,43.8219269 C77.0823875,44.5066445 80.928814,44.2023256 80.928814,44.2023256 C78.313244,45.4956811 70.0818912,45.1913621 70.0818912,45.1913621 Z" id="XMLID_14_"></path>
                    </g>
                    <g id="XMLID_4_" transform="translate(53.080686, 120.205980)">
                        <path d="M76.9285304,10.2707641 C76.9285304,10.2707641 76.8516019,10.2707641 76.9285304,10.2707641 L76.9285304,10.2707641 Z" id="XMLID_12_"></path>
                        <path d="M81.9288849,38.648505 C78.6978866,38.4963455 77.005459,37.8877076 77.005459,37.8877076 C84.9290976,37.5833887 90.929523,34.2358804 93.2373789,32.9425249 C96.9299483,30.8883721 100.930232,27.9973422 103.699659,23.5847176 C110.315513,13.0096346 107.623014,0.0760797342 107.623014,0.0760797342 C104.238159,9.28172757 98.8531616,14.6833887 94.0835927,18.030897 C82.3135276,26.3996678 70.4665339,24.1172757 70.4665339,24.1172757 C85.6214544,19.476412 91.08338,14.5312292 94.1605212,9.12956811 C97.0068769,4.03222591 96.9299483,0 96.9299483,0 C95.8529489,1.59767442 94.0835927,4.64086379 89.8525235,7.15149502 C85.6214544,9.66212625 80.5441714,10.0425249 79.9287431,10.1186047 C79.3133149,10.1946844 77.159316,10.2707641 76.8516019,10.2707641 L76.8516019,10.2707641 C76.8516019,10.2707641 76.3900307,10.2707641 73.9283177,10.3468439 C70.0049627,10.3468439 66.3123932,10.2707641 65.6200365,10.2707641 C64.8507512,10.2707641 62.1582526,10.1946844 62.1582526,10.1946844 C60.5427534,10.1946844 58.7733972,10.4990033 58.7733972,10.4990033 C58.7733972,10.4990033 56.3116843,10.8033223 53.7730428,11.7923588 C51.2344013,12.7813953 49.7727592,13.7704319 48.6188312,14.5312292 C47.5418318,15.2920266 45.387833,17.1179402 44.5416191,18.1069767 C43.6954053,19.0199336 43.2338341,19.3242525 42.7722629,19.7046512 C42.3106917,20.0850498 41.6952635,20.2372093 41.6952635,20.2372093 C42.5414773,18.9438538 43.6954053,16.5093023 43.6954053,16.5093023 C43.6954053,16.5093023 44.5416191,14.8355482 44.7724047,14.1508306 C45.0801188,13.5421927 45.6186185,12.020598 45.6186185,12.020598 C46.5417609,9.05348837 45.8494041,7.60797342 45.8494041,7.60797342 C45.8494041,7.60797342 43.2338341,9.58604651 40.3874785,11.6401993 C38.4642652,13.0096346 37.0795517,13.8465116 36.0794808,14.8355482 C33.8485534,17.0418605 33.1561966,19.8568106 33.1561966,19.8568106 C31.4637689,19.0960133 28.0019851,17.9548173 23.6170588,18.5634551 C19.1552041,19.172093 14.5394923,24.2694352 14.5394923,24.2694352 C12.9239931,25.8671096 9.15449512,30.5079734 7.0774248,32.7142857 C3.61564093,36.5182724 0.230785591,38.1920266 0.230785591,38.1920266 C0.692356774,38.5724252 7.00049627,40.6265781 14.6933493,35.3770764 C17.2319908,33.6272425 19.001347,32.1056478 21.7707741,28.9863787 C24.2324871,26.2475083 26.1557003,25.182392 27.0788427,24.6498339 C28.8481989,23.5847176 30.5406266,23.0521595 30.5406266,23.0521595 C29.5405557,24.345515 25.6172006,28.910299 25.5402721,29.0624585 C25.386415,29.2906977 21.5399885,33.779402 21.5399885,33.779402 C21.5399885,33.779402 21.1553459,34.2358804 18.6936329,36.8986711 C18.0782047,37.5833887 17.1550623,38.4963455 16.2319199,39.3332226 C11.3854225,44.0501661 6.46199656,47.7780731 6.46199656,47.7780731 C4.92342595,48.9953488 4.38492623,49.2996678 4.00028358,49.6039867 C3.61564093,49.9083056 2.92328416,50.4408638 2.38478444,51.1255814 C1.7693562,51.810299 1.30778502,52.5710963 0.846213835,53.5601329 C0.384642652,54.5491694 0.307714122,55.6142857 0.230785591,56.1468439 C0.153857061,56.679402 0.153857061,58.2009967 0.384642652,59.1900332 C0.615428243,60.1790698 0.769285304,60.407309 0.923142365,60.8637874 C1.15392796,61.3202658 1.7693562,62.1571429 1.7693562,62.1571429 C2.38478444,62.9179402 3.07714122,63.4504983 3.07714122,63.4504983 C4.5387833,64.5916944 5.69271125,63.7548173 6.00042537,63.6026578 C6.46199656,63.2983389 6.92356774,62.9940199 7.46206745,62.5375415 C8.0774957,62.0810631 9.07756659,61.0920266 9.07756659,61.0920266 C9.07756659,61.0920266 10.0776375,60.10299 10.6161372,59.6465116 C11.0777084,59.1900332 11.8469937,58.7335548 11.9239222,58.6574751 C12.0008507,58.5813953 13.1547787,57.820598 14.6933493,58.1249169 C16.2319199,58.4292359 17.7704905,59.4182724 17.7704905,59.4182724 C17.8474191,59.4943522 18.2320617,59.7225914 18.4628473,60.10299 C18.6936329,60.4833887 18.7705614,60.8637874 18.4628473,61.3963455 C18.0782047,61.9289037 17.3089193,62.5375415 16.6934911,63.0700997 C16.539634,63.2222591 15.3087776,64.2112957 14.7702778,64.5916944 C14.2317781,64.972093 13.6163499,65.4285714 13.2317072,65.6568106 C12.8470646,65.9611296 13.0009216,65.8089701 12.4624219,66.113289 C11.8469937,66.417608 11.5392796,66.7219269 11.5392796,66.7219269 C11.5392796,66.7219269 10.2314945,67.7870432 11.7700652,68.6239203 C13.3086358,69.4607973 15.0010634,69.5368771 15.0010634,69.5368771 L15.6164917,69.5368771 C20.2322035,69.5368771 22.6169879,66.2654485 22.6169879,66.2654485 C23.3862733,65.1242525 23.6939874,64.4395349 24.8479153,62.7657807 C26.3095574,60.7116279 27.9250565,60.8637874 30.309841,60.1790698 C45.6955471,55.8425249 49.8496877,47.0172757 49.8496877,47.0172757 C46.2340468,55.9946844 39.8489788,59.4182724 39.8489788,59.4182724 C39.8489788,59.4182724 40.7721211,61.9289037 41.772192,64.1352159 C43.7723338,68.6239203 45.4647615,70.982392 45.4647615,70.982392 C45.6186185,68.0913621 46.3879038,62.6136213 50.3112589,58.4292359 C52.6960433,55.9186047 55.0808278,55.0817276 58.157969,54.8534884 C61.8505385,54.5491694 64.543037,55.4621262 66.0816076,55.6903654 C75.9284595,57.5923588 85.1598832,55.9186047 85.1598832,55.9186047 C80.0826002,55.1578073 74.0052463,49.8322259 74.0052463,49.8322259 C74.0052463,49.8322259 80.0056716,51.2777409 86.4676682,50.0604651 C93.6220215,48.7671096 99.1608757,42.9850498 99.1608757,42.9850498 C106.546015,35.7574751 108.007657,29.0624585 108.007657,29.0624585 C95.5452348,38.2681063 85.7753114,38.8006645 81.9288849,38.648505 Z M6.15428243,56.6033223 C5.92349684,57.4401993 4.84649742,59.3421927 4.76956889,59.4943522 C4.61571183,59.7986711 4.15414064,60.5594684 3.38485534,59.0378738 C3.00021269,58.3531561 2.69249857,56.4511628 3.46178387,55.0817276 C3.76949799,54.5491694 4.23106917,54.3209302 4.38492623,54.3209302 C4.5387833,54.2448505 5.23114007,54.1687708 5.69271125,54.2448505 C6.15428243,54.39701 6.38506803,54.7013289 6.38506803,55.0817276 C6.46199656,55.538206 6.38506803,55.9946844 6.15428243,56.6033223 Z M32.1561257,38.0398671 C32.1561257,38.0398671 31.0021978,35.9857143 28.5404848,36.5943522 C28.5404848,36.5943522 30.2329125,37.9637874 30.5406266,39.7136213 C30.5406266,39.7136213 28.7712704,40.5504983 27.4634854,40.1700997 C26.3095574,39.789701 26.6172715,38.1159468 27.1557712,36.7465116 C27.3096283,36.366113 27.4634854,36.1378738 27.6173424,35.9096346 C27.7711995,35.6813953 28.0019851,35.5292359 28.2327707,35.3009967 C28.4635563,35.0727575 28.7712704,34.8445183 29.7713413,34.4641196 C29.7713413,34.4641196 31.7714831,33.7033223 32.3869113,35.4531561 C32.8484825,36.4421927 32.1561257,38.0398671 32.1561257,38.0398671 Z M45.54169,22.4435216 C45.54169,22.4435216 47.8495459,22.2913621 50.3881874,22.5956811 C57.5425408,23.3564784 63.6968232,21.3023256 63.6968232,21.3023256 C58.157969,24.6498339 52.0806151,24.8780731 52.0806151,24.8780731 C54.0038284,26.8561462 54.4653995,29.0624585 54.4653995,29.0624585 C49.2342595,24.041196 45.54169,22.4435216 45.54169,22.4435216 Z M59.311897,34.1598007 C58.0810405,32.7142857 57.004041,31.6491694 57.004041,31.6491694 C59.8503967,31.7252492 61.7736099,32.333887 64.543037,32.4099668 C67.9278924,32.4860465 73.235961,31.7252492 73.235961,31.7252492 C68.3894636,34.0076412 61.3889673,34.7684385 61.3889673,34.7684385 C63.0044664,37.0508306 63.3891091,39.0289037 63.3891091,39.0289037 C62.6967523,38.1920266 60.773539,35.8335548 59.311897,34.1598007 Z M70.0049627,44.9631229 C70.6203909,45.9521595 71.0819621,47.5498339 71.0819621,47.5498339 C68.0817494,44.8109635 65.0046082,41.0069767 65.0046082,41.0069767 C66.0046791,41.0069767 67.3124641,41.4634551 68.5433206,42.1481728 C69.3126059,42.5285714 70.6203909,43.213289 72.9282468,43.5936877 C77.005459,44.2784053 80.8518855,43.9740864 80.8518855,43.9740864 C78.2363154,45.2674419 70.0049627,44.9631229 70.0049627,44.9631229 Z" id="XMLID_5_"></path>
                    </g>
                </g>
            </g>
        </g>
    </g>
</svg>