<svg xmlns="http://www.w3.org/2000/svg" viewBox="0 0 512 512" width="512" height="512">
	<style>
		tspan { white-space:pre }
		.shp0 { fill: #000000 } 
	</style>
	<g id="development">
		<path id="Shape" class="shp0" d="M306.87,201.06h-0.02c-3.42,0 -6.47,2.15 -7.6,5.37c-6.69,19.1 -25.7,32.47 -47.46,30.51c-22.11,-1.99 -39.8,-19.96 -41.46,-42.1c-2.02,-26.84 19.25,-49.33 45.68,-49.33c18.71,0 34.84,11.28 41.94,27.4c1.31,2.97 4.19,4.94 7.44,4.94c5.87,0 9.73,-6.04 7.36,-11.42c-9.89,-22.46 -32.71,-37.98 -58.98,-37.05c-32,1.13 -58.16,26.98 -59.67,58.96c-1.67,35.52 26.75,64.95 61.91,64.95c27.05,0 50.1,-17.42 58.54,-41.62c1.81,-5.2 -2.16,-10.62 -7.67,-10.62z" />
		<path id="Shape" class="shp0" d="M453.85,80.84h-53.17c16.13,26.14 24.87,56.26 25.09,87.73c0.01,1.23 -0.1,2.48 -0.32,3.72v0l-31.95,181.06c-0.04,0.24 -0.07,0.49 -0.07,0.73v23.18h49.64c3.53,-12.43 14.97,-21.56 28.51,-21.56c16.34,0 29.64,13.3 29.64,29.64c0,16.34 -13.3,29.64 -29.64,29.64c-13.54,0 -24.98,-9.13 -28.51,-21.56h-49.64v98.19c0,11.23 -9.14,20.38 -20.38,20.38h-190.99c-11.23,0 -20.38,-9.14 -20.38,-20.38v-104.76c0,-2.32 -1.89,-4.21 -4.21,-4.21h-40.09c-11.23,0 -20.37,-9.14 -20.37,-20.38v-11.96h-16.17v78.15c0,4.46 -3.62,8.08 -8.08,8.08h-14.6c-3.53,12.43 -14.97,21.56 -28.51,21.56c-16.34,0 -29.64,-13.3 -29.64,-29.64c0,-16.35 13.3,-29.64 29.64,-29.64c13.54,0 24.98,9.13 28.51,21.56h6.52v-78.15c0,-4.46 3.62,-8.08 8.08,-8.08h24.25v-33.52c0,-2.32 -1.89,-4.21 -4.21,-4.21c-11.78,0 -22.5,-5.99 -28.67,-16.03c-6.17,-10.04 -6.67,-22.31 -1.35,-32.82l22.02,-43.45c0.3,-0.59 0.45,-1.24 0.45,-1.9v-50.96c0,-0.04 0,-0.07 0,-0.11c0.38,-27.87 11.03,-56.29 29.9,-81.09h-57.01c-3.53,12.43 -14.97,21.56 -28.51,21.56c-16.34,0 -29.64,-13.3 -29.64,-29.64c0,-16.34 13.3,-29.64 29.64,-29.64c13.54,0 24.98,9.13 28.51,21.56h71c2.24,-2.29 4.54,-4.53 6.93,-6.73c33.16,-30.42 75.75,-47.17 119.91,-47.17c45.14,0 87.63,17.52 119.65,49.33c4.91,4.88 9.48,10 13.7,15.34h64.49c3.53,-12.43 14.97,-21.56 28.51,-21.56c16.34,0 29.64,13.3 29.64,29.64c0,16.34 -13.3,29.64 -29.64,29.64c-13.54,0 -24.98,-9.13 -28.51,-21.56zM468.88,72.76c0,7.43 6.04,13.47 13.47,13.47c7.43,0 13.47,-6.04 13.47,-13.47c0,-7.43 -6.04,-13.47 -13.47,-13.47c-7.43,0 -13.47,6.04 -13.47,13.47zM43.12,61.98c0,-7.43 -6.04,-13.47 -13.47,-13.47c-7.43,0 -13.47,6.04 -13.47,13.47c0,7.43 6.04,13.47 13.47,13.47c7.43,0 13.47,-6.04 13.47,-13.47zM43.12,428.46c0,-7.43 -6.04,-13.47 -13.47,-13.47c-7.43,0 -13.47,6.04 -13.47,13.47c0,7.43 6.04,13.47 13.47,13.47c7.43,0 13.47,-6.04 13.47,-13.47zM458.1,385.35c0,7.43 6.04,13.47 13.47,13.47c7.43,0 13.47,-6.04 13.47,-13.47c0,-7.43 -6.04,-13.47 -13.47,-13.47c-7.43,0 -13.47,6.04 -13.47,13.47zM153,53.89h49.11c4.47,0 8.08,3.62 8.08,8.08v39.31c2.35,-1.2 4.74,-2.32 7.18,-3.33c1.62,-0.67 2.67,-2.28 2.67,-4.09v-10.79c0,-11.39 9.27,-20.65 20.65,-20.65h30.62c11.39,0 20.65,9.27 20.65,20.65v10.79c0,1.82 1.05,3.42 2.66,4.09c6.29,2.61 12.31,5.86 17.96,9.69v-34.9c0,-4.46 3.62,-8.08 8.08,-8.08h47.12c-28.07,-29.82 -67.85,-48.5 -111.79,-48.5c-40.26,0 -76.03,15.15 -103,37.73zM350.28,159.75l9.37,-5.41c2.14,-1.24 2.88,-3.99 1.64,-6.13l-15.31,-26.52c-0.6,-1.04 -1.57,-1.78 -2.72,-2.09c-1.16,-0.31 -2.36,-0.15 -3.4,0.45l-9.37,5.41c-7.26,4.2 -16.22,3.62 -22.84,-1.46c-5.9,-4.54 -12.36,-8.27 -19.2,-11.11c-7.68,-3.18 -12.64,-10.65 -12.64,-19.03v-10.79c0,-2.47 -2.01,-4.48 -4.49,-4.48h-30.62c-2.47,0 -4.48,2.01 -4.48,4.48v10.79c0,8.38 -4.96,15.85 -12.65,19.03c-5.44,2.25 -10.63,5.08 -15.49,8.42c-0.77,0.84 -1.7,1.52 -2.76,1.98c-0.32,0.24 -0.64,0.47 -0.95,0.71c-6.61,5.08 -15.58,5.65 -22.84,1.46l-9.36,-5.41c-1.04,-0.6 -2.25,-0.76 -3.4,-0.45c-1.16,0.31 -2.12,1.05 -2.72,2.09l-15.31,26.52c-0.6,1.04 -0.76,2.25 -0.45,3.4c0.31,1.16 1.05,2.13 2.09,2.72l9.36,5.4c7.25,4.19 11.24,12.23 10.16,20.48c-0.48,3.65 -0.72,7.39 -0.72,11.09c0,3.69 0.24,7.42 0.72,11.08c1.09,8.26 -2.9,16.3 -10.15,20.5l-9.36,5.41c-2.14,1.24 -2.88,3.99 -1.64,6.13l15.31,26.52c0.6,1.04 1.57,1.78 2.72,2.09c1.16,0.31 2.37,0.15 3.4,-0.45l9.37,-5.41c3.23,-1.87 6.8,-2.79 10.35,-2.79c4.42,0 8.82,1.43 12.49,4.25c5.9,4.54 12.36,8.27 19.2,11.11c7.68,3.18 12.64,10.65 12.64,19.03v10.79c0,2.47 2.01,4.49 4.49,4.49h30.62c2.47,0 4.49,-2.01 4.49,-4.49v-10.79c0,-8.38 4.96,-15.85 12.65,-19.03c6.85,-2.84 13.31,-6.57 19.2,-11.1c6.61,-5.08 15.58,-5.65 22.84,-1.46l9.36,5.41c1.04,0.6 2.25,0.76 3.4,0.45c1.16,-0.31 2.12,-1.05 2.72,-2.09l15.31,-26.52c0.6,-1.04 0.76,-2.25 0.45,-3.4c-0.31,-1.16 -1.05,-2.12 -2.09,-2.72l-9.36,-5.4c-7.25,-4.19 -11.24,-12.23 -10.16,-20.48c0.48,-3.65 0.72,-7.39 0.72,-11.09c0,-3.69 -0.24,-7.42 -0.72,-11.08c-1.09,-8.26 2.9,-16.31 10.15,-20.5zM113.18,300.63v33.52h134.73v-13.47c0,-0.15 0.01,-0.3 0.02,-0.45h-7.25c-11.39,0 -20.65,-9.27 -20.65,-20.65v-10.79c0,-1.82 -1.05,-3.42 -2.66,-4.09c-8.15,-3.38 -15.84,-7.83 -22.86,-13.22c-1.4,-1.08 -3.33,-1.19 -4.9,-0.28l-9.37,5.41c-4.78,2.76 -10.34,3.49 -15.67,2.06c-5.33,-1.43 -9.78,-4.84 -12.54,-9.62l-15.31,-26.52c-5.69,-9.86 -2.3,-22.52 7.56,-28.21l9.36,-5.41c1.57,-0.91 2.44,-2.63 2.21,-4.38c-0.57,-4.36 -0.86,-8.8 -0.86,-13.19c0,-4.4 0.29,-8.84 0.86,-13.19c0.23,-1.75 -0.64,-3.47 -2.21,-4.38l-9.36,-5.4c-4.78,-2.76 -8.2,-7.21 -9.62,-12.54c-1.43,-5.33 -0.69,-10.9 2.06,-15.67l15.31,-26.52c2.76,-4.78 7.21,-8.2 12.54,-9.62c5.33,-1.43 10.9,-0.69 15.67,2.06l9.36,5.4c1.4,0.81 3.08,0.81 4.42,0.04v-41.44h-57.75c-21.6,24.16 -34.44,53.42 -34.83,81.26v50.9c0,3.19 -0.76,6.37 -2.2,9.21l-22.02,43.45c-2.77,5.46 -2.51,11.83 0.7,17.04c3.2,5.22 8.77,8.33 14.89,8.33c11.23,0 20.37,9.14 20.37,20.37zM377.26,491.62v-98.19h-121.26c-4.47,0 -8.08,-3.62 -8.08,-8.08v-35.03h-134.74v11.96c0,2.32 1.89,4.21 4.21,4.21h40.09c11.23,0 20.37,9.14 20.37,20.38v104.76c0,2.32 1.89,4.21 4.21,4.21h191c2.32,0 4.21,-1.89 4.21,-4.21zM381.08,80.84h-52.32v26.95l3,-1.73c4.78,-2.76 10.34,-3.49 15.67,-2.06c5.33,1.43 9.78,4.85 12.54,9.62l15.31,26.52c5.69,9.86 2.3,22.52 -7.56,28.21l-9.36,5.41c-1.57,0.91 -2.44,2.63 -2.21,4.38c0.57,4.36 0.86,8.8 0.86,13.19c0,4.4 -0.29,8.84 -0.86,13.19c-0.23,1.75 0.64,3.47 2.21,4.38l9.36,5.4c4.78,2.76 8.2,7.21 9.62,12.54c1.43,5.33 0.69,10.9 -2.06,15.67l-15.31,26.52c-2.76,4.78 -7.21,8.2 -12.54,9.62c-5.33,1.43 -10.9,0.69 -15.67,-2.06l-9.36,-5.41c-1.57,-0.91 -3.5,-0.8 -4.9,0.28c-7.02,5.39 -14.71,9.84 -22.87,13.22c-1.62,0.67 -2.66,2.28 -2.66,4.1v10.79c0,11.39 -9.27,20.65 -20.65,20.65h-7.25c0.01,0.15 0.02,0.3 0.02,0.45v56.59h113.18v-23.18c0,-1.19 0.1,-2.38 0.31,-3.55l31.95,-181.05v0c0.05,-0.28 0.07,-0.55 0.07,-0.8c-0.23,-32.68 -10.77,-62.99 -28.52,-87.84z" />
	</g>
</svg>