<svg xmlns="http://www.w3.org/2000/svg" viewBox="0 0 342 512" width="342" height="512">
	<style>
		tspan { white-space:pre }
		.shp0 { fill: #000000 } 
	</style>
	<path id="Shape" class="shp0" d="M287.91,301.23c-21.33,20.48 -35.84,44.37 -40.11,67.41v100.69c0,5.12 -3.41,8.53 -8.53,8.53h-12.8l-15.36,20.48c-5.97,8.53 -16.21,13.65 -27.31,13.65h-25.6c-11.09,0 -20.48,-5.12 -27.31,-13.65l-15.36,-20.48h-12.8c-5.12,0 -8.53,-3.41 -8.53,-8.53v-100.69c-5.12,-23.04 -18.77,-46.93 -40.11,-67.41c-39.25,-37.55 -58.88,-91.31 -52.91,-145.92c8.53,-80.21 73.39,-145.07 153.6,-154.45c5.12,0 10.24,-0.85 16.21,-0.85c5.97,0 11.09,0.85 16.21,0.85c80.21,8.53 145.07,73.39 153.6,154.45c5.97,54.61 -13.65,107.52 -52.91,145.92zM136.87,196.27c0,-9.39 -7.68,-17.07 -17.07,-17.07c-9.39,0 -17.07,7.68 -17.07,17.07c0,9.39 7.68,17.07 17.07,17.07h17.07zM188.07,230.4h-34.13v128h34.13zM111.27,375.47v17.07h51.2c5.12,0 8.53,3.41 8.53,8.53c0,5.12 -3.41,8.53 -8.53,8.53h-51.2v17.07h25.6c5.12,0 8.53,3.41 8.53,8.53c0,5.12 -3.41,8.53 -8.53,8.53h-25.6v17.07h119.47v-17.07h-51.2c-5.12,0 -8.53,-3.41 -8.53,-8.53c0,-5.12 3.41,-8.53 8.53,-8.53h51.2v-17.07h-25.6c-5.12,0 -8.53,-3.41 -8.53,-8.53c0,-5.12 3.41,-8.53 8.53,-8.53h25.6v-17.07zM205.13,477.87h-68.27l7.68,10.24c3.41,4.27 8.53,6.83 13.65,6.83h25.6c5.12,0 10.24,-2.56 13.65,-6.83zM323.74,157.01c-7.68,-72.53 -66.56,-130.56 -139.09,-139.09c-4.27,0 -8.53,-0.85 -13.65,-0.85c-5.12,0 -9.39,0.85 -13.65,0.85c-72.53,8.53 -130.56,66.56 -139.09,139.09c-5.12,49.49 11.95,97.28 47.79,131.41c21.33,21.33 36.69,45.23 43.52,69.97h27.31v-128h-17.07c-18.77,0 -34.13,-15.36 -34.13,-34.13c0,-18.77 15.36,-34.13 34.13,-34.13c18.77,0 34.13,15.36 34.13,34.13v17.07h34.13v-17.07c0,-18.77 15.36,-34.13 34.13,-34.13c18.77,0 34.13,15.36 34.13,34.13c0,18.77 -15.36,34.13 -34.13,34.13h-17.07v128h27.31c6.83,-24.75 22.19,-48.64 43.52,-69.97c35.84,-34.13 52.91,-81.92 47.78,-131.41zM222.2,213.33c9.39,0 17.07,-7.68 17.07,-17.07c0,-9.39 -7.68,-17.07 -17.07,-17.07c-9.39,0 -17.07,7.68 -17.07,17.07v17.07z" />
</svg>