<svg xmlns="http://www.w3.org/2000/svg" viewBox="0 0 487 492" width="487" height="492">
	<style>
		tspan { white-space:pre }
		.shp0 { fill: #000000 } 
	</style>
	<g id="arrows">
		<path id="Shape" class="shp0" d="M387.66,270.62v-43.31h-32c-30.87,0 -56,25.13 -56,56v70.98c15.3,15.02 24,35.6 24,57.02c0,44.11 -35.89,80 -80,80c-44.11,0 -80,-35.89 -80,-80c0,-19.69 7.06,-38.28 19.98,-52.89c-8.46,-21.18 -28.81,-35.11 -51.98,-35.11h-32v43.31l-99.31,-99.31l99.31,-99.31v43.31h32c19.22,0 38,3.23 56,9.64v-121.64h-43.31l99.31,-99.31l99.31,99.31h-43.31v25.64c18,-6.41 36.78,-9.64 56,-9.64h32v-43.31l99.31,99.31zM403.66,211.31v20.69l60.69,-60.69l-60.69,-60.69v20.69h-48c-21.02,0 -41.48,4.28 -60.8,12.74l-11.2,4.9v-65.64h20.69l-60.69,-60.69l-60.69,60.69h20.69v161.64l-11.2,-4.9c-19.32,-8.46 -39.78,-12.74 -60.8,-12.74h-48v-20.69l-60.69,60.69l60.69,60.69v-20.69h48c31.76,0 59.4,20.37 68.78,50.67l1.43,4.62l-3.42,3.42c-12.12,12.09 -18.79,28.17 -18.79,45.3c0,35.29 28.71,64 64,64c35.29,0 64,-28.71 64,-64c0,-18.09 -7.78,-35.44 -21.34,-47.6l-2.66,-2.38v-78.02c0,-39.7 32.3,-72 72,-72z" />
		<path id="Shape" class="shp0" d="M283.66,411.31c0,22.06 -17.94,40 -40,40c-22.06,0 -40,-17.94 -40,-40c0,-22.06 17.94,-40 40,-40c22.06,0 40,17.94 40,40zM267.66,411.31c0,-13.23 -10.77,-24 -24,-24c-13.23,0 -24,10.77 -24,24c0,13.23 10.77,24 24,24c13.23,0 24,-10.77 24,-24z" />
		<path id="Rectangle-path" class="shp0" d="M235.66,355.31h16v-16h-16z" />
		<path id="Rectangle-path" class="shp0" d="M235.66,323.31h16v-16h-16z" />
		<path id="Rectangle-path" class="shp0" d="M235.66,291.31h16v-16h-16z" />
		<path id="Rectangle-path" class="shp0" d="M235.66,259.31h16v-16h-16z" />
		<path id="Rectangle-path" class="shp0" d="M235.66,227.31h16v-16h-16z" />
		<path id="Rectangle-path" class="shp0" d="M235.66,195.31h16v-16h-16z" />
		<path id="Rectangle-path" class="shp0" d="M235.66,163.31h16v-16h-16z" />
		<path id="Rectangle-path" class="shp0" d="M235.66,131.31h16v-16h-16z" />
		<path id="Rectangle-path" class="shp0" d="M235.66,99.31h16v-16h-16z" />
		<path id="Rectangle-path" class="shp0" d="M235.66,67.31h16v-16h-16z" />
	</g>
</svg>